<svg xmlns="http://www.w3.org/2000/svg" xmlns:xlink="http://www.w3.org/1999/xlink" width="500" zoomAndPan="magnify" viewBox="0 0 375 374.999991" height="500" preserveAspectRatio="xMidYMid meet" version="1.0"><defs><g/><clipPath id="054f614480"><path d="M 118 180 L 123 180 L 123 185 L 118 185 Z M 118 180 " clip-rule="nonzero"/></clipPath><clipPath id="244ee6647c"><path d="M -67.753906 26.964844 L 218.171875 3.730469 L 248.355469 375.242188 L -37.566406 398.476562 Z M -67.753906 26.964844 " clip-rule="nonzero"/></clipPath><clipPath id="4a354a5dc8"><path d="M -67.753906 26.964844 L 218.171875 3.730469 L 248.355469 375.242188 L -37.566406 398.476562 Z M -67.753906 26.964844 " clip-rule="nonzero"/></clipPath><clipPath id="67a4632281"><path d="M 119 181 L 123 181 L 123 184 L 119 184 Z M 119 181 " clip-rule="nonzero"/></clipPath><clipPath id="c33e2937e3"><path d="M -67.753906 26.964844 L 218.171875 3.730469 L 248.355469 375.242188 L -37.566406 398.476562 Z M -67.753906 26.964844 " clip-rule="nonzero"/></clipPath><clipPath id="9fcf3b2301"><path d="M -67.753906 26.964844 L 218.171875 3.730469 L 248.355469 375.242188 L -37.566406 398.476562 Z M -67.753906 26.964844 " clip-rule="nonzero"/></clipPath><clipPath id="50e0c56228"><path d="M 136 138 L 235 138 L 235 251 L 136 251 Z M 136 138 " clip-rule="nonzero"/></clipPath><clipPath id="644ebf32d8"><path d="M -67.753906 26.964844 L 218.171875 3.730469 L 248.355469 375.242188 L -37.566406 398.476562 Z M -67.753906 26.964844 " clip-rule="nonzero"/></clipPath><clipPath id="0ce7ca611a"><path d="M -67.753906 26.964844 L 218.171875 3.730469 L 248.355469 375.242188 L -37.566406 398.476562 Z M -67.753906 26.964844 " clip-rule="nonzero"/></clipPath><clipPath id="2663aa0a15"><path d="M 127 8 L 154 8 L 154 93 L 127 93 Z M 127 8 " clip-rule="nonzero"/></clipPath><clipPath id="5cad67e81c"><path d="M -67.753906 26.964844 L 218.171875 3.730469 L 248.355469 375.242188 L -37.566406 398.476562 Z M -67.753906 26.964844 " clip-rule="nonzero"/></clipPath><clipPath id="380386fbe9"><path d="M -67.753906 26.964844 L 218.171875 3.730469 L 248.355469 375.242188 L -37.566406 398.476562 Z M -67.753906 26.964844 " clip-rule="nonzero"/></clipPath><clipPath id="61555a6fca"><path d="M 17 251 L 68 251 L 68 356 L 17 356 Z M 17 251 " clip-rule="nonzero"/></clipPath><clipPath id="d0d5f67930"><path d="M -67.753906 26.964844 L 218.171875 3.730469 L 248.355469 375.242188 L -37.566406 398.476562 Z M -67.753906 26.964844 " clip-rule="nonzero"/></clipPath><clipPath id="c15da9b965"><path d="M -67.753906 26.964844 L 218.171875 3.730469 L 248.355469 375.242188 L -37.566406 398.476562 Z M -67.753906 26.964844 " clip-rule="nonzero"/></clipPath><clipPath id="d1ba51144c"><path d="M 54 76 L 221 76 L 221 359 L 54 359 Z M 54 76 " clip-rule="nonzero"/></clipPath><clipPath id="123c1433b4"><path d="M -67.753906 26.964844 L 218.171875 3.730469 L 248.355469 375.242188 L -37.566406 398.476562 Z M -67.753906 26.964844 " clip-rule="nonzero"/></clipPath><clipPath id="493de307b5"><path d="M -67.753906 26.964844 L 218.171875 3.730469 L 248.355469 375.242188 L -37.566406 398.476562 Z M -67.753906 26.964844 " clip-rule="nonzero"/></clipPath></defs><g clip-path="url(#054f614480)"><g clip-path="url(#244ee6647c)"><g clip-path="url(#4a354a5dc8)"><path fill="#36c6c9" d="M 119.207031 184.894531 C 120.453125 183.476562 121.707031 182.089844 122.957031 180.726562 C 122.824219 180.574219 122.6875 180.414062 122.554688 180.257812 C 121.410156 181.40625 120.125 182.738281 118.703125 184.277344 C 118.71875 184.292969 118.734375 184.3125 118.753906 184.335938 L 119.207031 184.894531 " fill-opacity="1" fill-rule="nonzero"/></g></g></g><g clip-path="url(#67a4632281)"><g clip-path="url(#c33e2937e3)"><g clip-path="url(#9fcf3b2301)"><path fill="#36c6c9" d="M 122.089844 182.523438 C 121.894531 182.304688 121.699219 182.089844 121.503906 181.871094 C 120.292969 182.859375 119.640625 183.328125 119.640625 183.328125 C 120.4375 183.101562 121.253906 182.832031 122.089844 182.523438 " fill-opacity="1" fill-rule="nonzero"/></g></g></g><g clip-path="url(#50e0c56228)"><g clip-path="url(#644ebf32d8)"><g clip-path="url(#0ce7ca611a)"><path fill="#36c6c9" d="M 234.035156 201.894531 L 234.050781 201.574219 L 234.074219 200.929688 C 234.078125 200.714844 234.09375 200.5 234.09375 200.289062 L 234.085938 199.648438 L 234.074219 199.007812 C 234.070312 198.792969 234.070312 198.578125 234.050781 198.367188 L 233.964844 197.097656 C 233.957031 196.996094 233.953125 196.886719 233.941406 196.78125 L 233.902344 196.46875 L 233.828125 195.839844 C 233.777344 195.421875 233.734375 195 233.65625 194.589844 L 233.445312 193.351562 C 233.414062 193.144531 233.363281 192.945312 233.316406 192.742188 L 233.183594 192.132812 C 233.019531 191.3125 232.785156 190.523438 232.574219 189.726562 L 232.492188 189.425781 L 232.402344 189.132812 L 232.214844 188.546875 C 232.089844 188.15625 231.96875 187.761719 231.835938 187.378906 L 231.417969 186.230469 L 231.207031 185.65625 C 231.136719 185.464844 231.058594 185.28125 230.980469 185.09375 C 230.671875 184.34375 230.375 183.589844 230.03125 182.863281 L 229.53125 181.769531 C 229.359375 181.40625 229.175781 181.050781 229 180.691406 C 227.570312 177.832031 225.953125 175.117188 224.21875 172.511719 L 223.566406 171.539062 L 223.402344 171.292969 L 223.234375 171.058594 L 222.894531 170.582031 L 222.21875 169.628906 L 221.882812 169.152344 L 221.53125 168.6875 C 221.066406 168.066406 220.605469 167.445312 220.136719 166.832031 C 219.660156 166.222656 219.179688 165.617188 218.703125 165.011719 C 216.765625 162.617188 214.761719 160.296875 212.703125 158.046875 C 212.191406 157.484375 211.664062 156.9375 211.144531 156.382812 L 210.367188 155.550781 L 209.570312 154.734375 C 209.042969 154.195312 208.511719 153.652344 207.984375 153.109375 C 207.445312 152.578125 206.910156 152.046875 206.375 151.515625 L 205.566406 150.722656 L 204.75 149.941406 C 204.207031 149.417969 203.664062 148.898438 203.121094 148.378906 C 202.574219 147.863281 202.015625 147.359375 201.46875 146.847656 L 200.644531 146.085938 L 200.230469 145.703125 L 199.8125 145.328125 C 197.289062 143.042969 194.730469 140.824219 192.144531 138.652344 C 191.335938 140.710938 190.511719 142.777344 189.675781 144.863281 C 190.382812 145.484375 191.089844 146.109375 191.789062 146.746094 L 192.707031 147.566406 L 193.164062 147.980469 L 193.617188 148.398438 C 194.222656 148.957031 194.828125 149.515625 195.433594 150.074219 L 195.886719 150.492188 L 196.332031 150.917969 L 197.230469 151.769531 C 197.824219 152.339844 198.425781 152.902344 199.011719 153.484375 C 203.730469 158.085938 208.285156 162.898438 212.425781 168.027344 C 214.496094 170.59375 216.464844 173.234375 218.269531 175.96875 C 220.074219 178.699219 221.714844 181.523438 223.105469 184.433594 C 223.195312 184.613281 223.277344 184.800781 223.355469 184.984375 L 223.605469 185.53125 L 223.851562 186.082031 L 223.972656 186.359375 L 224.085938 186.636719 C 224.382812 187.378906 224.695312 188.117188 224.949219 188.867188 L 225.148438 189.429688 C 225.21875 189.617188 225.289062 189.800781 225.339844 189.992188 L 225.695312 191.121094 L 225.78125 191.40625 L 226.003906 192.261719 L 226.15625 192.832031 L 226.191406 192.972656 L 226.226562 193.117188 L 226.285156 193.402344 L 226.53125 194.546875 L 226.71875 195.691406 L 226.769531 195.980469 C 226.78125 196.074219 226.789062 196.171875 226.800781 196.265625 L 226.871094 196.839844 L 226.9375 197.414062 C 226.953125 197.605469 226.960938 197.792969 226.972656 197.984375 L 227.011719 198.558594 L 227.03125 198.84375 C 227.035156 198.9375 227.03125 199.035156 227.035156 199.128906 L 227.046875 200.269531 L 227 201.402344 C 226.996094 201.59375 226.972656 201.78125 226.957031 201.964844 L 226.898438 202.53125 C 226.566406 205.523438 225.679688 208.425781 224.214844 211.09375 C 223.488281 212.429688 222.628906 213.714844 221.671875 214.941406 C 221.425781 215.242188 221.191406 215.554688 220.929688 215.847656 L 220.542969 216.292969 C 220.414062 216.441406 220.289062 216.59375 220.152344 216.734375 L 219.339844 217.601562 L 218.488281 218.4375 C 217.335938 219.539062 216.097656 220.582031 214.808594 221.574219 L 213.828125 222.308594 C 213.496094 222.546875 213.15625 222.777344 212.820312 223.015625 C 212.488281 223.253906 212.136719 223.476562 211.792969 223.703125 C 211.449219 223.933594 211.109375 224.160156 210.75 224.375 C 209.355469 225.265625 207.898438 226.085938 206.421875 226.878906 C 204.941406 227.675781 203.417969 228.40625 201.882812 229.121094 C 199.203125 230.34375 196.460938 231.453125 193.679688 232.464844 C 190.894531 233.476562 188.074219 234.394531 185.226562 235.238281 C 179.535156 236.929688 173.75 238.324219 167.941406 239.511719 C 158.917969 241.359375 149.835938 242.730469 140.769531 243.785156 C 139.242188 246.183594 137.703125 248.53125 136.152344 250.832031 C 136.941406 250.761719 137.726562 250.6875 138.515625 250.613281 C 141.871094 250.292969 145.234375 249.925781 148.605469 249.507812 C 151.976562 249.09375 155.351562 248.625 158.730469 248.097656 C 162.113281 247.574219 165.5 246.988281 168.882812 246.328125 C 172.265625 245.667969 175.65625 244.945312 179.035156 244.125 C 182.417969 243.300781 185.792969 242.402344 189.15625 241.375 L 190.417969 240.988281 L 191.675781 240.585938 L 192.304688 240.382812 L 192.933594 240.175781 L 194.1875 239.753906 L 195.441406 239.316406 L 196.066406 239.09375 L 196.691406 238.867188 L 197.941406 238.40625 L 199.1875 237.925781 L 199.808594 237.683594 L 200.425781 237.433594 L 201.667969 236.933594 L 202.902344 236.40625 C 203.105469 236.316406 203.3125 236.234375 203.519531 236.140625 L 204.132812 235.867188 C 205.773438 235.144531 207.394531 234.355469 209.007812 233.527344 C 212.226562 231.863281 215.378906 229.980469 218.375 227.777344 C 218.746094 227.496094 219.121094 227.226562 219.488281 226.933594 L 220.585938 226.058594 C 221.308594 225.457031 222.027344 224.851562 222.71875 224.203125 C 224.109375 222.917969 225.441406 221.539062 226.675781 220.050781 C 227.902344 218.558594 229.027344 216.953125 230.011719 215.242188 C 230.996094 213.53125 231.828125 211.714844 232.476562 209.824219 C 232.613281 209.414062 232.75 209.003906 232.878906 208.589844 L 233.210938 207.328125 C 233.238281 207.226562 233.269531 207.125 233.292969 207.015625 L 233.359375 206.699219 L 233.492188 206.0625 L 233.621094 205.425781 L 233.816406 204.144531 C 233.847656 203.929688 233.878906 203.714844 233.894531 203.503906 L 234.015625 202.214844 C 234.027344 202.109375 234.035156 202 234.035156 201.894531 " fill-opacity="1" fill-rule="nonzero"/></g></g></g><g clip-path="url(#2663aa0a15)"><g clip-path="url(#5cad67e81c)"><g clip-path="url(#380386fbe9)"><path fill="#36c6c9" d="M 147.304688 88.746094 C 144.125 84.332031 141.199219 79.789062 138.652344 75.097656 C 137.375 72.753906 136.199219 70.367188 135.144531 67.949219 C 134.089844 65.527344 133.148438 63.070312 132.378906 60.578125 C 130.828125 55.59375 129.90625 50.460938 129.929688 45.355469 C 129.945312 42.808594 130.214844 40.269531 130.730469 37.796875 C 131.253906 35.324219 132.035156 32.90625 133.054688 30.605469 C 134.070312 28.296875 135.335938 26.105469 136.785156 24.042969 C 138.238281 21.984375 139.878906 20.0625 141.652344 18.269531 C 143.421875 16.480469 145.320312 14.824219 147.296875 13.277344 C 147.796875 12.898438 148.296875 12.515625 148.796875 12.136719 C 149.308594 11.777344 149.820312 11.414062 150.335938 11.050781 C 150.839844 10.679688 151.367188 10.347656 151.890625 10 C 152.417969 9.660156 152.929688 9.304688 153.46875 8.988281 C 151.066406 10.324219 148.703125 11.777344 146.433594 13.398438 C 144.164062 15.011719 141.992188 16.800781 139.964844 18.777344 C 139.464844 19.277344 138.972656 19.789062 138.476562 20.292969 C 137.996094 20.820312 137.527344 21.355469 137.050781 21.886719 C 136.828125 22.160156 136.601562 22.4375 136.375 22.714844 L 136.039062 23.132812 C 135.921875 23.269531 135.808594 23.40625 135.707031 23.550781 C 135.492188 23.839844 135.277344 24.128906 135.066406 24.414062 L 134.746094 24.851562 C 134.632812 24.992188 134.542969 25.144531 134.441406 25.292969 C 132.808594 27.660156 131.417969 30.226562 130.335938 32.941406 C 129.257812 35.660156 128.511719 38.535156 128.074219 41.46875 C 128.042969 41.65625 128.027344 41.839844 128.007812 42.023438 L 127.9375 42.574219 L 127.875 43.128906 L 127.84375 43.410156 L 127.820312 43.6875 C 127.769531 44.425781 127.695312 45.171875 127.6875 45.917969 C 127.675781 46.289062 127.660156 46.664062 127.65625 47.039062 C 127.660156 47.414062 127.660156 47.789062 127.664062 48.160156 L 127.667969 48.722656 C 127.675781 48.910156 127.683594 49.097656 127.695312 49.28125 C 127.714844 49.660156 127.730469 50.035156 127.75 50.410156 C 127.9375 53.40625 128.421875 56.394531 129.105469 59.34375 C 129.183594 59.714844 129.28125 60.082031 129.375 60.449219 C 129.46875 60.8125 129.5625 61.183594 129.660156 61.550781 C 129.761719 61.917969 129.867188 62.28125 129.972656 62.644531 C 130.078125 63.007812 130.175781 63.378906 130.296875 63.738281 C 130.53125 64.460938 130.75 65.191406 131.003906 65.90625 C 131.128906 66.269531 131.253906 66.628906 131.375 66.988281 C 131.511719 67.347656 131.644531 67.703125 131.777344 68.0625 C 133.917969 73.785156 136.71875 79.289062 139.886719 84.613281 C 141.527344 87.367188 143.28125 90.070312 145.113281 92.726562 C 145.9375 91.523438 146.761719 90.328125 147.597656 89.140625 C 147.5 89.011719 147.398438 88.878906 147.304688 88.746094 " fill-opacity="1" fill-rule="nonzero"/></g></g></g><g clip-path="url(#61555a6fca)"><g clip-path="url(#d0d5f67930)"><g clip-path="url(#c15da9b965)"><path fill="#36c6c9" d="M 66.875 251.738281 C 66.160156 251.851562 65.441406 251.976562 64.726562 252.09375 C 61.863281 252.585938 59.015625 253.164062 56.199219 253.851562 C 53.378906 254.539062 50.585938 255.335938 47.835938 256.277344 C 47.144531 256.503906 46.464844 256.761719 45.78125 257.011719 L 45.269531 257.199219 L 44.765625 257.398438 L 43.75 257.800781 C 43.410156 257.929688 43.078125 258.082031 42.742188 258.21875 L 41.738281 258.652344 L 40.746094 259.109375 C 40.414062 259.257812 40.082031 259.410156 39.757812 259.578125 L 38.777344 260.0625 C 38.449219 260.222656 38.128906 260.398438 37.804688 260.570312 L 37.320312 260.828125 L 37.082031 260.957031 L 36.84375 261.09375 L 35.890625 261.636719 C 34.632812 262.386719 33.390625 263.164062 32.199219 264.027344 L 31.75 264.347656 C 31.601562 264.457031 31.457031 264.570312 31.3125 264.683594 C 31.019531 264.90625 30.726562 265.125 30.4375 265.355469 L 29.582031 266.058594 L 29.371094 266.234375 L 28.75 266.785156 C 27.648438 267.769531 26.59375 268.808594 25.625 269.929688 C 24.652344 271.050781 23.75 272.226562 22.929688 273.464844 C 22.117188 274.703125 21.398438 276.003906 20.773438 277.34375 C 19.527344 280.023438 18.683594 282.871094 18.25 285.738281 C 17.8125 288.609375 17.742188 291.492188 17.964844 294.3125 C 18.191406 297.136719 18.671875 299.902344 19.351562 302.585938 C 20.707031 307.957031 22.769531 313.023438 25.15625 317.824219 C 27.554688 322.628906 30.289062 327.179688 33.214844 331.53125 C 36.144531 335.886719 39.265625 340.035156 42.515625 344.019531 C 45.773438 348.003906 49.144531 351.820312 52.65625 355.445312 C 49.011719 351.257812 45.535156 346.855469 42.210938 342.277344 C 38.894531 337.691406 35.738281 332.917969 32.847656 327.925781 C 29.96875 322.9375 27.347656 317.726562 25.257812 312.269531 C 24.21875 309.539062 23.304688 306.753906 22.605469 303.910156 C 21.90625 301.070312 21.40625 298.167969 21.210938 295.253906 C 21.011719 292.339844 21.121094 289.410156 21.644531 286.554688 C 22.164062 283.703125 23.105469 280.941406 24.476562 278.398438 C 25.84375 275.851562 27.644531 273.539062 29.75 271.511719 C 30.804688 270.496094 31.929688 269.546875 33.109375 268.664062 C 34.300781 267.785156 35.546875 266.972656 36.832031 266.210938 L 37.804688 265.65625 C 38.132812 265.476562 38.464844 265.300781 38.796875 265.125 C 38.960938 265.039062 39.125 264.945312 39.292969 264.863281 L 39.800781 264.613281 L 40.304688 264.363281 C 40.472656 264.28125 40.640625 264.195312 40.816406 264.121094 L 41.84375 263.644531 C 42.015625 263.566406 42.1875 263.492188 42.363281 263.417969 L 42.886719 263.195312 C 43.582031 262.890625 44.292969 262.625 45 262.34375 C 47.84375 261.257812 50.785156 260.363281 53.78125 259.597656 C 56.777344 258.835938 59.832031 258.210938 62.921875 257.699219 C 64.285156 257.472656 65.660156 257.269531 67.039062 257.082031 C 67.015625 255.3125 67.019531 253.527344 67.046875 251.714844 C 66.988281 251.722656 66.933594 251.730469 66.875 251.738281 " fill-opacity="1" fill-rule="nonzero"/></g></g></g><g clip-path="url(#d1ba51144c)"><g clip-path="url(#123c1433b4)"><g clip-path="url(#493de307b5)"><path fill="#36c6c9" d="M 173.585938 171.742188 C 173.585938 171.742188 154.03125 189.0625 131.742188 177.515625 C 131.742188 177.515625 157.0625 175.675781 173.585938 171.742188 Z M 156.601562 206.398438 C 156.136719 206.707031 155.457031 207.148438 154.589844 207.671875 C 153.730469 208.195312 152.679688 208.800781 151.476562 209.445312 C 151.175781 209.605469 150.863281 209.769531 150.546875 209.9375 C 150.234375 210.101562 149.910156 210.273438 149.578125 210.441406 C 148.910156 210.785156 148.210938 211.132812 147.484375 211.472656 C 146.023438 212.15625 144.4375 212.828125 142.765625 213.441406 C 142.554688 213.515625 142.347656 213.589844 142.132812 213.667969 C 141.921875 213.742188 141.710938 213.816406 141.503906 213.890625 C 141.074219 214.039062 140.648438 214.179688 140.214844 214.320312 C 139.34375 214.59375 138.457031 214.847656 137.554688 215.070312 C 135.753906 215.515625 133.890625 215.84375 132.003906 216 C 130.117188 216.15625 128.203125 216.136719 126.3125 215.890625 C 126.632812 215.769531 126.953125 215.648438 127.277344 215.527344 L 128.25 215.175781 L 130.199219 214.476562 C 131.496094 214.015625 132.785156 213.558594 134.078125 213.105469 C 135.371094 212.65625 136.652344 212.207031 137.941406 211.769531 C 139.246094 211.34375 140.539062 210.917969 141.835938 210.503906 C 143.128906 210.085938 144.417969 209.675781 145.707031 209.273438 L 147.636719 208.675781 C 147.957031 208.570312 148.28125 208.476562 148.605469 208.382812 L 149.578125 208.097656 C 152.171875 207.339844 154.746094 206.609375 157.3125 205.910156 C 157.3125 205.910156 157.0625 206.089844 156.601562 206.398438 Z M 64.34375 345.578125 C 63.992188 346.324219 63.121094 346.8125 62.21875 346.777344 C 60.726562 346.714844 59.800781 345.402344 60.382812 344.171875 C 60.738281 343.429688 61.605469 342.9375 62.507812 342.976562 C 64 343.035156 64.925781 344.351562 64.34375 345.578125 Z M 220.800781 80.726562 C 220.738281 80.535156 220.621094 80.351562 220.445312 80.1875 C 220.273438 80.027344 220.046875 79.886719 219.769531 79.789062 C 218.128906 79.203125 216.433594 78.71875 214.699219 78.324219 L 214.371094 78.25 C 214.261719 78.226562 214.148438 78.207031 214.035156 78.183594 L 213.351562 78.050781 L 212.664062 77.921875 C 212.546875 77.902344 212.4375 77.882812 212.324219 77.863281 L 211.988281 77.808594 C 211.542969 77.734375 211.089844 77.664062 210.636719 77.59375 C 210.191406 77.53125 209.75 77.472656 209.300781 77.417969 C 205.738281 76.96875 202.238281 76.808594 198.777344 76.890625 C 195.320312 76.972656 191.910156 77.296875 188.546875 77.816406 C 187.710938 77.949219 186.867188 78.089844 186.03125 78.242188 C 185.207031 78.402344 184.382812 78.570312 183.554688 78.746094 C 182.714844 78.917969 181.914062 79.121094 181.097656 79.320312 L 179.871094 79.628906 L 179.261719 79.785156 L 178.660156 79.957031 C 178.660156 79.957031 178.3125 80.039062 177.660156 80.242188 C 177.335938 80.34375 176.933594 80.472656 176.457031 80.640625 C 176.222656 80.722656 175.96875 80.816406 175.695312 80.917969 C 175.429688 81.023438 175.152344 81.136719 174.851562 81.261719 C 173.671875 81.765625 172.203125 82.414062 170.621094 83.3125 C 170.222656 83.535156 169.808594 83.765625 169.386719 84.015625 C 169.171875 84.136719 168.957031 84.265625 168.742188 84.398438 C 168.53125 84.53125 168.316406 84.667969 168.097656 84.808594 C 167.234375 85.367188 166.332031 85.984375 165.390625 86.664062 C 164.480469 87.347656 163.542969 88.097656 162.582031 88.90625 C 162.097656 89.308594 161.632812 89.742188 161.160156 90.183594 C 160.683594 90.625 160.207031 91.085938 159.726562 91.558594 C 159.484375 91.796875 159.242188 92.039062 159.003906 92.28125 C 158.769531 92.53125 158.535156 92.785156 158.300781 93.042969 C 157.832031 93.554688 157.363281 94.085938 156.894531 94.632812 C 156.660156 94.902344 156.425781 95.179688 156.191406 95.460938 C 156.128906 95.53125 156.070312 95.601562 156.015625 95.675781 C 155.957031 95.746094 155.902344 95.820312 155.84375 95.890625 C 155.734375 96.035156 155.621094 96.179688 155.507812 96.328125 C 155.054688 96.914062 154.605469 97.515625 154.160156 98.132812 C 153.25 99.363281 152.425781 100.6875 151.59375 102.070312 C 151.390625 102.414062 151.183594 102.765625 150.980469 103.117188 C 150.878906 103.296875 150.773438 103.472656 150.679688 103.652344 C 150.582031 103.832031 150.488281 104.011719 150.390625 104.195312 C 150.011719 104.925781 149.636719 105.675781 149.269531 106.4375 C 149.085938 106.816406 148.90625 107.203125 148.726562 107.589844 C 148.636719 107.789062 148.542969 107.980469 148.460938 108.175781 C 148.378906 108.375 148.296875 108.578125 148.210938 108.777344 C 147.882812 109.578125 147.5625 110.394531 147.25 111.230469 C 147.097656 111.644531 146.945312 112.0625 146.792969 112.488281 C 146.71875 112.699219 146.644531 112.910156 146.574219 113.128906 C 146.507812 113.34375 146.441406 113.558594 146.371094 113.78125 C 146.105469 114.648438 145.847656 115.535156 145.605469 116.433594 C 145.605469 116.433594 145.453125 116.144531 145.34375 115.382812 C 145.289062 115.003906 145.25 114.507812 145.246094 113.871094 C 145.242188 113.550781 145.25 113.199219 145.273438 112.804688 C 145.285156 112.613281 145.296875 112.40625 145.3125 112.191406 C 145.320312 112.082031 145.332031 111.972656 145.34375 111.859375 C 145.355469 111.746094 145.371094 111.632812 145.382812 111.515625 C 145.503906 110.578125 145.699219 109.480469 146 108.1875 C 146.144531 107.542969 146.320312 106.847656 146.527344 106.105469 C 146.75 105.367188 147.007812 104.578125 147.296875 103.734375 C 147.59375 102.890625 147.921875 101.992188 148.296875 101.039062 C 148.691406 100.089844 149.132812 99.085938 149.625 98.015625 C 149.871094 97.480469 150.128906 96.933594 150.402344 96.371094 C 150.6875 95.8125 150.992188 95.238281 151.304688 94.644531 C 151.621094 94.054688 151.953125 93.449219 152.304688 92.824219 C 152.476562 92.515625 152.652344 92.195312 152.835938 91.878906 C 153.027344 91.5625 153.222656 91.238281 153.421875 90.914062 L 152.617188 91.390625 C 152.484375 91.46875 152.355469 91.550781 152.226562 91.632812 L 151.839844 91.875 L 150.28125 92.859375 L 148.730469 93.859375 C 148.472656 94.023438 148.222656 94.195312 147.972656 94.367188 L 147.222656 94.882812 L 145.722656 95.925781 L 144.972656 96.449219 L 144.601562 96.714844 C 144.476562 96.804688 144.351562 96.890625 144.230469 96.980469 C 143.265625 97.699219 142.304688 98.421875 141.34375 99.15625 L 140.625 99.707031 L 140.265625 99.980469 L 139.921875 100.261719 L 138.53125 101.390625 L 137.148438 102.53125 C 136.6875 102.910156 136.222656 103.292969 135.785156 103.683594 C 134.898438 104.460938 134.011719 105.242188 133.132812 106.03125 L 132.472656 106.625 L 132.144531 106.925781 L 131.824219 107.226562 L 130.554688 108.433594 C 123.777344 114.894531 117.800781 121.828125 112.523438 128.972656 C 112.414062 129.117188 112.308594 129.265625 112.203125 129.414062 L 111.894531 129.859375 C 111.6875 130.15625 111.484375 130.457031 111.285156 130.761719 C 110.886719 131.363281 110.496094 131.972656 110.125 132.585938 C 109.75 133.203125 109.390625 133.828125 109.042969 134.457031 C 108.953125 134.613281 108.871094 134.769531 108.792969 134.929688 L 108.550781 135.402344 C 108.390625 135.71875 108.234375 136.039062 108.082031 136.359375 C 107.472656 137.640625 106.917969 138.9375 106.421875 140.25 L 106.234375 140.742188 C 106.175781 140.90625 106.121094 141.070312 106.066406 141.238281 C 105.957031 141.566406 105.851562 141.898438 105.746094 142.230469 C 105.542969 142.894531 105.347656 143.558594 105.171875 144.226562 C 104.992188 144.894531 104.832031 145.5625 104.683594 146.234375 C 104.609375 146.570312 104.539062 146.90625 104.472656 147.242188 C 104.4375 147.410156 104.40625 147.578125 104.375 147.746094 L 104.292969 148.25 C 104.082031 149.601562 103.929688 150.949219 103.839844 152.300781 C 103.792969 152.972656 103.761719 153.644531 103.746094 154.316406 C 103.738281 154.652344 103.734375 154.988281 103.734375 155.324219 C 103.738281 155.660156 103.75 155.996094 103.761719 156.332031 C 103.816406 157.671875 103.929688 159.007812 104.105469 160.328125 C 104.214844 161.128906 104.332031 161.917969 104.457031 162.683594 C 104.519531 163.066406 104.585938 163.445312 104.65625 163.816406 C 104.671875 163.910156 104.6875 164 104.707031 164.09375 C 104.722656 164.1875 104.742188 164.28125 104.761719 164.371094 C 104.800781 164.554688 104.839844 164.738281 104.878906 164.917969 C 105.191406 166.363281 105.542969 167.707031 105.933594 168.914062 C 106.714844 171.324219 107.65625 173.191406 108.761719 174.222656 C 108.761719 174.222656 108.457031 174.121094 107.890625 173.695312 C 107.320312 173.265625 106.480469 172.515625 105.414062 171.203125 C 104.34375 169.886719 103.046875 168.011719 101.570312 165.316406 C 101.203125 164.644531 100.824219 163.917969 100.433594 163.136719 C 100.046875 162.351562 99.636719 161.511719 99.25 160.617188 C 98.457031 158.820312 97.636719 156.777344 96.796875 154.453125 C 91.078125 165.566406 86.582031 176.734375 83.027344 187.59375 C 79.472656 198.457031 76.855469 209.03125 74.894531 219.046875 C 74.730469 219.890625 74.585938 220.738281 74.460938 221.582031 C 74.339844 222.429688 74.230469 223.277344 74.171875 224.125 C 74.039062 225.824219 73.992188 227.519531 74.035156 229.210938 C 74.054688 230.058594 74.097656 230.902344 74.160156 231.742188 C 74.195312 232.164062 74.230469 232.585938 74.273438 233.003906 C 74.296875 233.214844 74.316406 233.425781 74.34375 233.632812 L 74.429688 234.261719 C 74.667969 235.933594 74.996094 237.589844 75.40625 239.226562 C 75.730469 240.507812 76.074219 241.753906 76.433594 242.933594 C 76.609375 243.523438 76.792969 244.097656 76.980469 244.648438 C 77.171875 245.203125 77.367188 245.734375 77.566406 246.242188 C 78.363281 248.273438 79.210938 249.914062 80.089844 250.921875 C 80.089844 250.921875 79.140625 249.980469 77.59375 248.175781 C 76.816406 247.273438 75.894531 246.15625 74.863281 244.832031 C 74.605469 244.5 74.34375 244.15625 74.074219 243.800781 C 73.804688 243.441406 73.535156 243.074219 73.257812 242.691406 C 72.703125 241.925781 72.128906 241.109375 71.539062 240.242188 C 71.199219 242.847656 70.953125 245.394531 70.710938 247.878906 C 70.59375 249.121094 70.480469 250.34375 70.371094 251.554688 C 70.320312 252.160156 70.265625 252.757812 70.214844 253.355469 C 70.171875 253.953125 70.132812 254.546875 70.089844 255.132812 C 69.929688 257.488281 69.785156 259.773438 69.664062 261.988281 C 69.632812 262.542969 69.605469 263.089844 69.574219 263.632812 C 69.566406 263.769531 69.558594 263.90625 69.554688 264.042969 C 69.546875 264.175781 69.542969 264.3125 69.539062 264.445312 C 69.527344 264.71875 69.519531 264.988281 69.507812 265.253906 C 69.46875 266.324219 69.433594 267.378906 69.402344 268.414062 C 69.339844 270.476562 69.292969 272.464844 69.257812 274.375 C 69.253906 274.613281 69.25 274.851562 69.246094 275.085938 C 69.246094 275.324219 69.242188 275.558594 69.242188 275.789062 C 69.242188 276.257812 69.242188 276.722656 69.242188 277.175781 C 69.242188 278.09375 69.246094 278.984375 69.25 279.855469 C 69.257812 281.601562 69.277344 283.257812 69.304688 284.828125 C 69.308594 285.21875 69.316406 285.605469 69.324219 285.988281 C 69.332031 286.367188 69.335938 286.742188 69.351562 287.109375 C 69.378906 287.851562 69.402344 288.570312 69.429688 289.261719 C 69.433594 289.378906 69.421875 289.496094 69.394531 289.613281 L 68.136719 294.761719 L 67.511719 297.335938 L 67.355469 297.980469 L 67.203125 298.625 L 64.828125 308.9375 L 64.679688 309.585938 L 64.539062 310.230469 L 63.285156 315.996094 L 63.386719 316.019531 C 63.222656 316.757812 63.058594 317.5 62.890625 318.242188 C 62.355469 320.695312 61.847656 323.121094 61.371094 325.515625 C 61.253906 326.113281 61.136719 326.710938 61.019531 327.300781 C 60.914062 327.898438 60.804688 328.488281 60.695312 329.082031 C 60.484375 330.261719 60.28125 331.433594 60.082031 332.59375 C 59.921875 333.535156 59.769531 334.46875 59.617188 335.394531 L 54.996094 358.28125 C 54.894531 358.792969 55.65625 359.035156 55.96875 358.59375 C 59.519531 353.550781 67.21875 346.945312 69.398438 345.117188 C 69.65625 344.902344 69.5625 344.535156 69.234375 344.4375 C 67.015625 343.773438 65.207031 342.5 63.78125 341.109375 C 65.496094 332.949219 67.222656 325.085938 68.960938 317.507812 L 69.019531 317.523438 L 70.226562 312.160156 C 70.523438 310.808594 70.855469 309.460938 71.171875 308.117188 L 72.136719 304.074219 L 73.101562 300.027344 C 73.257812 299.355469 73.433594 298.683594 73.601562 298.011719 L 74.109375 295.992188 L 75.125 291.957031 L 75.632812 289.941406 L 75.886719 288.929688 L 76.011719 288.425781 L 76.144531 287.921875 L 78.285156 279.871094 L 78.820312 277.859375 L 79.378906 275.847656 L 81.628906 267.816406 C 81.722656 267.484375 81.824219 267.148438 81.921875 266.816406 L 82.21875 265.816406 L 82.808594 263.8125 L 83.992188 259.804688 L 84.582031 257.804688 C 84.785156 257.136719 84.996094 256.472656 85.203125 255.808594 L 87.691406 247.820312 L 90.300781 239.859375 C 93.851562 229.265625 97.691406 218.730469 101.914062 208.292969 C 102.9375 205.679688 104.0625 203.089844 105.152344 200.488281 L 105.972656 198.539062 L 106.183594 198.054688 L 108.976562 191.757812 C 109.117188 191.433594 109.257812 191.109375 109.410156 190.792969 L 112.105469 185.015625 L 112.328125 184.535156 L 112.441406 184.292969 L 112.558594 184.050781 L 113.027344 183.09375 L 113.964844 181.183594 L 115.371094 178.3125 L 115.605469 177.832031 C 115.683594 177.675781 115.765625 177.519531 115.847656 177.359375 L 117.804688 173.558594 L 118.78125 171.660156 C 119.117188 171.027344 119.460938 170.402344 119.800781 169.773438 L 121.839844 166.003906 L 122.09375 165.53125 L 122.363281 165.066406 L 122.894531 164.132812 L 123.957031 162.261719 L 125.023438 160.394531 L 125.289062 159.929688 C 125.378906 159.773438 125.472656 159.617188 125.5625 159.464844 L 126.121094 158.539062 L 128.335938 154.835938 C 128.429688 154.683594 128.523438 154.527344 128.617188 154.375 L 128.90625 153.914062 L 129.484375 153 L 130.636719 151.164062 L 131.792969 149.335938 L 132.996094 147.523438 L 134.199219 145.707031 L 134.800781 144.804688 C 134.902344 144.652344 135 144.5 135.105469 144.351562 L 135.417969 143.90625 L 137.921875 140.324219 L 138.234375 139.875 C 138.339844 139.726562 138.449219 139.582031 138.554688 139.433594 L 139.207031 138.550781 L 140.507812 136.785156 L 141.160156 135.902344 L 141.484375 135.460938 C 141.597656 135.3125 141.710938 135.167969 141.824219 135.023438 L 143.175781 133.28125 C 146.785156 128.640625 150.617188 124.109375 154.746094 119.761719 L 154.476562 120.050781 C 154.382812 120.148438 154.292969 120.246094 154.207031 120.34375 L 153.683594 120.9375 L 152.636719 122.121094 L 151.589844 123.308594 L 151.332031 123.601562 L 151.199219 123.753906 L 151.074219 123.902344 L 150.570312 124.503906 L 148.558594 126.917969 L 148.058594 127.523438 L 147.570312 128.132812 L 146.601562 129.359375 L 145.636719 130.585938 L 145.152344 131.195312 C 145.070312 131.300781 144.988281 131.402344 144.914062 131.503906 L 144.675781 131.816406 L 142.816406 134.300781 L 141.886719 135.546875 C 141.582031 135.964844 141.289062 136.386719 140.988281 136.808594 L 139.203125 139.328125 C 134.496094 146.078125 130.21875 153.019531 126.273438 160.070312 C 122.324219 167.121094 118.703125 174.292969 115.324219 181.527344 L 114.058594 184.246094 L 113.742188 184.921875 L 113.441406 185.605469 L 112.835938 186.972656 L 111.625 189.699219 L 111.023438 191.066406 L 110.71875 191.75 L 110.429688 192.4375 L 108.121094 197.929688 L 107.832031 198.617188 L 107.6875 198.957031 L 107.546875 199.304688 L 106.996094 200.683594 L 105.894531 203.445312 L 104.792969 206.203125 C 104.699219 206.433594 104.613281 206.664062 104.527344 206.894531 L 104.261719 207.589844 L 103.738281 208.976562 C 103.039062 210.824219 102.332031 212.671875 101.640625 214.523438 L 99.636719 220.09375 L 99.136719 221.484375 C 98.972656 221.949219 98.800781 222.410156 98.644531 222.878906 L 97.691406 225.671875 L 96.023438 230.566406 L 95.90625 230.914062 L 95.792969 231.265625 L 93.976562 236.875 L 93.074219 239.679688 L 92.207031 242.492188 L 90.488281 248.121094 L 90.269531 248.828125 C 90.199219 249.0625 90.132812 249.296875 90.066406 249.53125 L 89.65625 250.941406 L 88.835938 253.765625 L 88.019531 256.589844 C 87.746094 257.527344 87.46875 258.46875 87.214844 259.410156 L 85.664062 265.074219 L 84.886719 267.902344 C 84.753906 268.375 84.636719 268.847656 84.511719 269.320312 L 82.675781 276.410156 L 82.304688 277.832031 L 82.121094 278.539062 L 81.949219 279.25 L 81.25 282.09375 L 79.859375 287.78125 L 79.511719 289.199219 L 79.179688 290.625 L 78.523438 293.472656 C 78.242188 294.6875 79.730469 295.566406 80.699219 294.761719 C 82.1875 293.535156 83.644531 292.3125 85.082031 291.101562 C 85.804688 290.496094 86.527344 289.890625 87.242188 289.289062 C 87.957031 288.6875 88.667969 288.085938 89.371094 287.492188 C 90.777344 286.296875 92.160156 285.105469 93.519531 283.921875 C 94.195312 283.332031 94.871094 282.742188 95.542969 282.15625 C 96.214844 281.570312 96.886719 280.984375 97.554688 280.40625 C 98.886719 279.242188 100.191406 278.082031 101.476562 276.933594 C 102.113281 276.355469 102.75 275.78125 103.382812 275.210938 C 104.015625 274.640625 104.628906 274.066406 105.261719 273.5 C 107.773438 271.234375 110.195312 268.996094 112.523438 266.777344 C 121.917969 257.933594 130.121094 249.550781 137.304688 241.582031 C 134.898438 242.132812 132.703125 242.59375 130.699219 242.980469 C 128.707031 243.375 126.910156 243.691406 125.292969 243.9375 C 122.054688 244.433594 119.535156 244.65625 117.617188 244.71875 C 115.695312 244.785156 114.378906 244.699219 113.542969 244.589844 C 112.703125 244.484375 112.347656 244.359375 112.347656 244.359375 C 116.175781 245.0625 120.332031 244.261719 124.414062 242.707031 C 124.925781 242.511719 125.4375 242.308594 125.941406 242.089844 C 126.195312 241.984375 126.449219 241.871094 126.703125 241.757812 C 126.957031 241.644531 127.210938 241.53125 127.46875 241.414062 C 128.484375 240.945312 129.492188 240.445312 130.484375 239.914062 C 132.464844 238.859375 134.382812 237.699219 136.1875 236.519531 C 136.640625 236.226562 137.089844 235.929688 137.535156 235.640625 C 137.976562 235.351562 138.414062 235.058594 138.839844 234.765625 C 139.691406 234.183594 140.511719 233.605469 141.289062 233.039062 C 142.070312 232.476562 142.808594 231.925781 143.5 231.402344 C 144.191406 230.871094 144.847656 230.378906 145.453125 229.914062 C 147.875 228.0625 149.453125 226.726562 149.816406 226.496094 C 149.855469 226.472656 149.90625 226.476562 149.945312 226.507812 C 149.996094 226.542969 150.0625 226.539062 150.097656 226.492188 C 156.136719 218.898438 161.226562 211.691406 165.539062 204.8125 C 169.855469 197.929688 173.398438 191.375 176.355469 185.078125 C 176.539062 184.683594 176.71875 184.285156 176.894531 183.890625 C 177.078125 183.503906 177.257812 183.117188 177.4375 182.730469 C 177.792969 181.957031 178.136719 181.179688 178.464844 180.402344 C 178.550781 180.207031 178.632812 180.011719 178.710938 179.816406 L 178.832031 179.523438 L 178.957031 179.242188 C 179.125 178.863281 179.285156 178.480469 179.445312 178.101562 C 179.769531 177.339844 180.074219 176.578125 180.375 175.816406 C 180.449219 175.625 180.523438 175.429688 180.597656 175.238281 C 180.671875 175.054688 180.75 174.867188 180.824219 174.679688 C 180.976562 174.308594 181.121094 173.9375 181.265625 173.5625 C 181.554688 172.816406 181.835938 172.0625 182.101562 171.308594 C 182.167969 171.121094 182.238281 170.9375 182.308594 170.753906 C 182.375 170.570312 182.445312 170.386719 182.511719 170.207031 C 182.648438 169.839844 182.78125 169.472656 182.914062 169.101562 C 183.042969 168.734375 183.167969 168.363281 183.296875 167.996094 C 183.359375 167.808594 183.421875 167.625 183.480469 167.4375 C 183.542969 167.253906 183.605469 167.0625 183.667969 166.886719 C 185.664062 161.046875 187.269531 155.394531 188.722656 149.863281 C 187.925781 150.007812 187.148438 150.152344 186.390625 150.285156 C 185.621094 150.449219 184.875 150.609375 184.140625 150.761719 C 183.773438 150.839844 183.40625 150.917969 183.042969 150.992188 C 182.863281 151.03125 182.679688 151.070312 182.5 151.105469 C 182.410156 151.125 182.320312 151.144531 182.230469 151.164062 C 182.140625 151.183594 182.054688 151.203125 181.964844 151.226562 C 181.253906 151.394531 180.558594 151.554688 179.878906 151.714844 C 179.191406 151.878906 178.519531 152.035156 177.867188 152.1875 C 177.78125 152.203125 177.699219 152.222656 177.621094 152.242188 C 177.539062 152.265625 177.457031 152.285156 177.375 152.304688 C 177.214844 152.347656 177.054688 152.390625 176.894531 152.429688 C 176.574219 152.507812 176.257812 152.589844 175.945312 152.671875 C 175.316406 152.828125 174.703125 152.984375 174.105469 153.132812 C 173.804688 153.207031 173.503906 153.28125 173.210938 153.351562 C 173.0625 153.390625 172.917969 153.425781 172.773438 153.460938 C 172.628906 153.5 172.484375 153.539062 172.34375 153.574219 C 171.207031 153.878906 170.121094 154.164062 169.085938 154.425781 C 168.566406 154.554688 168.058594 154.683594 167.570312 154.804688 C 167.320312 154.863281 167.085938 154.933594 166.851562 154.992188 C 166.613281 155.058594 166.378906 155.117188 166.152344 155.179688 C 165.230469 155.417969 164.363281 155.636719 163.542969 155.835938 C 163.132812 155.933594 162.734375 156.027344 162.351562 156.121094 C 162.15625 156.160156 161.96875 156.207031 161.785156 156.25 C 161.597656 156.289062 161.414062 156.332031 161.238281 156.375 C 158.402344 157.058594 156.359375 157.421875 155.035156 157.601562 C 154.867188 157.625 154.714844 157.640625 154.570312 157.660156 C 154.429688 157.679688 154.296875 157.695312 154.175781 157.710938 C 153.933594 157.738281 153.738281 157.757812 153.578125 157.769531 C 153.265625 157.792969 153.117188 157.796875 153.117188 157.796875 C 153.375 157.742188 153.640625 157.679688 153.902344 157.613281 C 154.039062 157.578125 154.171875 157.542969 154.304688 157.507812 C 154.441406 157.46875 154.578125 157.433594 154.714844 157.394531 C 155.265625 157.242188 155.824219 157.0625 156.394531 156.867188 C 157.535156 156.46875 158.710938 155.980469 159.90625 155.421875 C 160.054688 155.351562 160.207031 155.285156 160.363281 155.214844 C 160.511719 155.144531 160.667969 155.078125 160.820312 155.007812 C 161.128906 154.863281 161.4375 154.71875 161.746094 154.566406 C 162.363281 154.269531 162.988281 153.953125 163.613281 153.625 C 164.855469 152.957031 166.15625 152.289062 167.433594 151.566406 C 167.757812 151.386719 168.074219 151.203125 168.398438 151.019531 C 168.554688 150.929688 168.71875 150.839844 168.875 150.746094 L 169.117188 150.605469 L 169.359375 150.472656 C 170.011719 150.109375 170.660156 149.746094 171.304688 149.371094 C 171.628906 149.183594 171.949219 148.996094 172.269531 148.808594 L 172.75 148.527344 L 172.988281 148.382812 C 173.070312 148.335938 173.152344 148.292969 173.234375 148.246094 C 173.882812 147.886719 174.523438 147.515625 175.160156 147.148438 C 175.476562 146.960938 175.792969 146.777344 176.109375 146.589844 C 176.265625 146.5 176.421875 146.40625 176.578125 146.3125 C 176.734375 146.21875 176.894531 146.136719 177.054688 146.042969 C 177.6875 145.691406 178.3125 145.339844 178.925781 144.984375 C 179.230469 144.808594 179.535156 144.632812 179.835938 144.457031 L 180.0625 144.324219 L 180.292969 144.199219 C 180.445312 144.117188 180.59375 144.035156 180.746094 143.953125 C 181.347656 143.621094 181.941406 143.292969 182.519531 142.964844 C 183.28125 142.519531 184.03125 142.089844 184.734375 141.601562 C 185.085938 141.355469 185.425781 141.105469 185.753906 140.839844 L 186.003906 140.640625 L 186.25 140.449219 C 186.414062 140.320312 186.574219 140.1875 186.734375 140.054688 C 187.050781 139.785156 187.359375 139.507812 187.65625 139.21875 C 187.804688 139.074219 187.953125 138.925781 188.097656 138.777344 L 188.3125 138.550781 L 188.527344 138.332031 C 189.097656 137.746094 189.625 137.117188 190.121094 136.449219 C 192.109375 133.839844 193.570312 130.78125 194.570312 127.25 C 194.773438 126.550781 194.96875 125.859375 195.164062 125.167969 C 195.375 124.480469 195.582031 123.800781 195.785156 123.125 C 195.890625 122.78125 195.992188 122.441406 196.097656 122.097656 C 196.207031 121.765625 196.316406 121.429688 196.421875 121.097656 C 196.640625 120.425781 196.855469 119.746094 197.078125 119.082031 C 197.308594 118.414062 197.535156 117.757812 197.761719 117.105469 C 197.820312 116.9375 197.878906 116.773438 197.933594 116.609375 C 197.992188 116.441406 198.050781 116.277344 198.109375 116.117188 C 198.230469 115.792969 198.351562 115.472656 198.46875 115.148438 C 198.589844 114.824219 198.710938 114.503906 198.832031 114.183594 C 198.890625 114.019531 198.953125 113.859375 199.011719 113.695312 L 199.105469 113.453125 L 199.199219 113.21875 C 199.457031 112.582031 199.707031 111.953125 199.960938 111.328125 C 200.214844 110.691406 200.480469 110.085938 200.746094 109.472656 C 200.878906 109.164062 201.015625 108.855469 201.148438 108.550781 C 201.214844 108.398438 201.28125 108.246094 201.351562 108.09375 C 201.417969 107.9375 201.488281 107.792969 201.558594 107.644531 C 201.832031 107.046875 202.113281 106.457031 202.390625 105.863281 C 202.460938 105.714844 202.535156 105.566406 202.605469 105.417969 C 202.675781 105.273438 202.75 105.128906 202.820312 104.988281 C 202.964844 104.699219 203.113281 104.410156 203.253906 104.125 C 203.402344 103.835938 203.546875 103.550781 203.695312 103.269531 C 203.765625 103.125 203.839844 102.980469 203.914062 102.84375 C 203.992188 102.703125 204.066406 102.566406 204.140625 102.425781 C 204.441406 101.875 204.742188 101.324219 205.042969 100.78125 C 205.195312 100.503906 205.351562 100.242188 205.503906 99.976562 C 205.664062 99.710938 205.816406 99.449219 205.972656 99.1875 C 206.128906 98.925781 206.285156 98.664062 206.4375 98.40625 C 206.59375 98.144531 206.753906 97.894531 206.914062 97.644531 C 207.230469 97.140625 207.550781 96.644531 207.867188 96.152344 C 208.1875 95.671875 208.515625 95.195312 208.835938 94.726562 C 209 94.492188 209.164062 94.261719 209.320312 94.03125 C 209.488281 93.804688 209.648438 93.582031 209.8125 93.359375 C 210.140625 92.914062 210.464844 92.476562 210.789062 92.050781 C 211.453125 91.214844 212.09375 90.394531 212.753906 89.640625 C 212.917969 89.449219 213.078125 89.265625 213.238281 89.078125 C 213.398438 88.894531 213.558594 88.710938 213.722656 88.53125 C 214.046875 88.179688 214.367188 87.835938 214.6875 87.496094 C 217.152344 84.839844 219.21875 82.953125 220.46875 81.839844 C 220.824219 81.519531 220.925781 81.113281 220.800781 80.726562 " fill-opacity="1" fill-rule="nonzero"/></g></g></g><g fill="#7cd6ce" fill-opacity="1"><g transform="translate(187.131247, 288.288386)"><g><path d="M 27.90625 -38.171875 C 28.25 -38.804688 28.765625 -39.234375 29.453125 -39.453125 C 30.140625 -39.671875 31 -39.78125 32.03125 -39.78125 C 33.0625 -39.78125 33.894531 -39.6875 34.53125 -39.5 C 35.164062 -39.320312 35.632812 -39.101562 35.9375 -38.84375 C 36.25 -38.59375 36.476562 -38.21875 36.625 -37.71875 C 36.84375 -37.132812 36.953125 -36.207031 36.953125 -34.9375 L 36.953125 -4.78125 C 36.953125 -3.914062 36.925781 -3.28125 36.875 -2.875 C 36.820312 -2.476562 36.648438 -2.007812 36.359375 -1.46875 C 35.847656 -0.488281 34.429688 0 32.109375 0 C 30.703125 0 29.726562 -0.109375 29.1875 -0.328125 C 28.644531 -0.546875 28.191406 -0.890625 27.828125 -1.359375 C 19.671875 -12.222656 14.304688 -19.320312 11.734375 -22.65625 L 11.734375 -4.78125 C 11.734375 -3.914062 11.707031 -3.28125 11.65625 -2.875 C 11.601562 -2.476562 11.429688 -2.007812 11.140625 -1.46875 C 10.628906 -0.488281 9.21875 0 6.90625 0 C 4.65625 0 3.273438 -0.488281 2.765625 -1.46875 C 2.484375 -2.007812 2.3125 -2.5 2.25 -2.9375 C 2.195312 -3.375 2.171875 -4.007812 2.171875 -4.84375 L 2.171875 -35.15625 C 2.171875 -36.53125 2.34375 -37.535156 2.6875 -38.171875 C 3.03125 -38.804688 3.546875 -39.234375 4.234375 -39.453125 C 4.921875 -39.671875 5.804688 -39.78125 6.890625 -39.78125 C 7.984375 -39.78125 8.847656 -39.679688 9.484375 -39.484375 C 10.117188 -39.285156 10.5625 -39.054688 10.8125 -38.796875 C 10.957031 -38.691406 11.375 -38.222656 12.0625 -37.390625 C 19.707031 -26.992188 24.816406 -20.128906 27.390625 -16.796875 L 27.390625 -35.15625 C 27.390625 -36.53125 27.5625 -37.535156 27.90625 -38.171875 Z M 27.90625 -38.171875 "/></g></g></g><g fill="#7cd6ce" fill-opacity="1"><g transform="translate(227.071619, 288.288386)"><g><path d="M 1.359375 -14.296875 C 1.359375 -18.640625 2.878906 -22.222656 5.921875 -25.046875 C 8.960938 -27.878906 12.441406 -29.296875 16.359375 -29.296875 C 20.273438 -29.296875 23.734375 -27.890625 26.734375 -25.078125 C 29.742188 -22.273438 31.25 -18.695312 31.25 -14.34375 C 31.25 -11.34375 30.46875 -8.671875 28.90625 -6.328125 C 27.351562 -3.992188 25.460938 -2.273438 23.234375 -1.171875 C 21.003906 -0.0664062 18.691406 0.484375 16.296875 0.484375 C 13.910156 0.484375 11.59375 -0.101562 9.34375 -1.28125 C 7.101562 -2.457031 5.210938 -4.191406 3.671875 -6.484375 C 2.128906 -8.785156 1.359375 -11.390625 1.359375 -14.296875 Z M 12.71875 -10.40625 C 13.875 -9.519531 15.050781 -9.078125 16.25 -9.078125 C 17.445312 -9.078125 18.640625 -9.53125 19.828125 -10.4375 C 21.023438 -11.34375 21.625 -12.679688 21.625 -14.453125 C 21.625 -16.234375 21.0625 -17.554688 19.9375 -18.421875 C 18.820312 -19.296875 17.609375 -19.734375 16.296875 -19.734375 C 14.992188 -19.734375 13.78125 -19.28125 12.65625 -18.375 C 11.539062 -17.46875 10.984375 -16.132812 10.984375 -14.375 C 10.984375 -12.613281 11.5625 -11.289062 12.71875 -10.40625 Z M 12.71875 -10.40625 "/></g></g></g><g fill="#7cd6ce" fill-opacity="1"><g transform="translate(260.491156, 288.288386)"><g><path d="M 18.796875 -19.015625 L 15.265625 -19.234375 L 15.265625 -11.734375 C 15.265625 -10.753906 15.414062 -10.046875 15.71875 -9.609375 C 16.03125 -9.179688 16.613281 -8.96875 17.46875 -8.96875 C 18.320312 -8.96875 18.972656 -8.9375 19.421875 -8.875 C 19.878906 -8.820312 20.363281 -8.65625 20.875 -8.375 C 21.707031 -7.894531 22.125 -6.679688 22.125 -4.734375 C 22.125 -2.441406 21.613281 -1.046875 20.59375 -0.546875 C 20.050781 -0.285156 19.570312 -0.128906 19.15625 -0.078125 C 18.738281 -0.0234375 18.128906 0 17.328125 0 C 13.566406 0 10.707031 -0.847656 8.75 -2.546875 C 6.789062 -4.253906 5.8125 -7.132812 5.8125 -11.1875 L 5.8125 -19.234375 C 5.125 -19.128906 4.378906 -19.078125 3.578125 -19.078125 C 2.785156 -19.078125 2.125 -19.382812 1.59375 -20 C 1.070312 -20.613281 0.8125 -21.660156 0.8125 -23.140625 C 0.8125 -24.628906 0.898438 -25.707031 1.078125 -26.375 C 1.265625 -27.050781 1.519531 -27.535156 1.84375 -27.828125 C 2.425781 -28.296875 3.148438 -28.53125 4.015625 -28.53125 L 5.8125 -28.3125 L 5.8125 -33.90625 C 5.8125 -34.738281 5.835938 -35.351562 5.890625 -35.75 C 5.953125 -36.15625 6.125 -36.59375 6.40625 -37.0625 C 6.882812 -37.96875 8.28125 -38.421875 10.59375 -38.421875 C 13.0625 -38.421875 14.53125 -37.75 15 -36.40625 C 15.175781 -35.832031 15.265625 -34.910156 15.265625 -33.640625 L 15.265625 -28.3125 C 16.859375 -28.457031 18.0625 -28.53125 18.875 -28.53125 C 19.695312 -28.53125 20.316406 -28.503906 20.734375 -28.453125 C 21.148438 -28.398438 21.628906 -28.226562 22.171875 -27.9375 C 23.109375 -27.457031 23.578125 -26.0625 23.578125 -23.75 C 23.578125 -21.46875 23.09375 -20.070312 22.125 -19.5625 C 21.570312 -19.3125 21.085938 -19.15625 20.671875 -19.09375 C 20.253906 -19.039062 19.628906 -19.015625 18.796875 -19.015625 Z M 18.796875 -19.015625 "/></g></g></g><g fill="#7cd6ce" fill-opacity="1"><g transform="translate(285.705303, 288.288386)"><g><path d="M 29.78125 -17.734375 C 29.78125 -15.515625 29.226562 -13.867188 28.125 -12.796875 C 27.019531 -11.722656 25.796875 -11.1875 24.453125 -11.1875 L 11.578125 -11.1875 C 11.578125 -10.175781 12.171875 -9.328125 13.359375 -8.640625 C 14.554688 -7.953125 15.753906 -7.609375 16.953125 -7.609375 C 19.054688 -7.609375 20.707031 -7.828125 21.90625 -8.265625 L 22.5 -8.484375 C 23.363281 -8.878906 24.085938 -9.078125 24.671875 -9.078125 C 25.828125 -9.078125 26.820312 -8.257812 27.65625 -6.625 C 28.132812 -5.644531 28.375 -4.8125 28.375 -4.125 C 28.375 -0.90625 24.515625 0.703125 16.796875 0.703125 C 14.109375 0.703125 11.722656 0.242188 9.640625 -0.671875 C 7.554688 -1.597656 5.9375 -2.820312 4.78125 -4.34375 C 2.5 -7.28125 1.359375 -10.5625 1.359375 -14.1875 C 1.359375 -18.75 2.832031 -22.394531 5.78125 -25.125 C 8.738281 -27.863281 12.425781 -29.234375 16.84375 -29.234375 C 21.882812 -29.234375 25.582031 -27.457031 27.9375 -23.90625 C 29.164062 -22.019531 29.78125 -19.960938 29.78125 -17.734375 Z M 18.3125 -16.140625 C 19.6875 -16.140625 20.375 -16.71875 20.375 -17.875 C 20.375 -18.707031 20.054688 -19.378906 19.421875 -19.890625 C 18.796875 -20.398438 17.890625 -20.65625 16.703125 -20.65625 C 15.523438 -20.65625 14.359375 -20.171875 13.203125 -19.203125 C 12.046875 -18.242188 11.46875 -17.222656 11.46875 -16.140625 Z M 18.3125 -16.140625 "/></g></g></g><g fill="#7cd6ce" fill-opacity="1"><g transform="translate(317.667537, 288.288386)"><g/></g></g><g fill="#2c4a54" fill-opacity="1"><g transform="translate(80.737163, 353.528016)"><g/></g></g><g fill="#2c4a54" fill-opacity="1"><g transform="translate(109.971268, 353.528016)"><g><path d="M 56 -76.609375 C 56.695312 -77.890625 57.734375 -78.742188 59.109375 -79.171875 C 60.492188 -79.609375 62.222656 -79.828125 64.296875 -79.828125 C 66.367188 -79.828125 68.039062 -79.644531 69.3125 -79.28125 C 70.582031 -78.925781 71.523438 -78.492188 72.140625 -77.984375 C 72.765625 -77.472656 73.222656 -76.707031 73.515625 -75.6875 C 73.941406 -74.519531 74.15625 -72.664062 74.15625 -70.125 L 74.15625 -9.59375 C 74.15625 -7.851562 74.097656 -6.582031 73.984375 -5.78125 C 73.878906 -4.976562 73.539062 -4.03125 72.96875 -2.9375 C 71.945312 -0.976562 69.109375 0 64.453125 0 C 61.617188 0 59.65625 -0.21875 58.5625 -0.65625 C 57.476562 -1.09375 56.570312 -1.78125 55.84375 -2.71875 C 39.476562 -24.53125 28.71875 -38.785156 23.5625 -45.484375 L 23.5625 -9.59375 C 23.5625 -7.851562 23.503906 -6.582031 23.390625 -5.78125 C 23.285156 -4.976562 22.941406 -4.03125 22.359375 -2.9375 C 21.335938 -0.976562 18.5 0 13.84375 0 C 9.34375 0 6.582031 -0.976562 5.5625 -2.9375 C 4.976562 -4.03125 4.628906 -5.015625 4.515625 -5.890625 C 4.410156 -6.765625 4.359375 -8.035156 4.359375 -9.703125 L 4.359375 -70.5625 C 4.359375 -73.320312 4.703125 -75.335938 5.390625 -76.609375 C 6.085938 -77.890625 7.125 -78.742188 8.5 -79.171875 C 9.882812 -79.609375 11.664062 -79.828125 13.84375 -79.828125 C 16.03125 -79.828125 17.757812 -79.628906 19.03125 -79.234375 C 20.300781 -78.835938 21.191406 -78.382812 21.703125 -77.875 C 21.992188 -77.65625 22.832031 -76.707031 24.21875 -75.03125 C 39.550781 -54.164062 49.800781 -40.390625 54.96875 -33.703125 L 54.96875 -70.5625 C 54.96875 -73.320312 55.3125 -75.335938 56 -76.609375 Z M 56 -76.609375 "/></g></g></g><g fill="#2c4a54" fill-opacity="1"><g transform="translate(190.127072, 353.528016)"><g><path d="M 59.765625 -35.609375 C 59.765625 -31.140625 58.65625 -27.832031 56.4375 -25.6875 C 54.21875 -23.539062 51.765625 -22.46875 49.078125 -22.46875 L 23.234375 -22.46875 C 23.234375 -20.425781 24.429688 -18.710938 26.828125 -17.328125 C 29.222656 -15.953125 31.625 -15.265625 34.03125 -15.265625 C 38.25 -15.265625 41.554688 -15.703125 43.953125 -16.578125 L 45.15625 -17.015625 C 46.894531 -17.816406 48.347656 -18.21875 49.515625 -18.21875 C 51.835938 -18.21875 53.835938 -16.582031 55.515625 -13.3125 C 56.460938 -11.34375 56.9375 -9.664062 56.9375 -8.28125 C 56.9375 -1.8125 49.191406 1.421875 33.703125 1.421875 C 28.316406 1.421875 23.535156 0.492188 19.359375 -1.359375 C 15.179688 -3.210938 11.925781 -5.664062 9.59375 -8.71875 C 5.007812 -14.613281 2.71875 -21.195312 2.71875 -28.46875 C 2.71875 -37.625 5.679688 -44.945312 11.609375 -50.4375 C 17.535156 -55.925781 24.9375 -58.671875 33.8125 -58.671875 C 43.914062 -58.671875 51.332031 -55.109375 56.0625 -47.984375 C 58.53125 -44.203125 59.765625 -40.078125 59.765625 -35.609375 Z M 36.75 -32.390625 C 39.507812 -32.390625 40.890625 -33.550781 40.890625 -35.875 C 40.890625 -37.550781 40.253906 -38.894531 38.984375 -39.90625 C 37.710938 -40.925781 35.894531 -41.4375 33.53125 -41.4375 C 31.164062 -41.4375 28.820312 -40.472656 26.5 -38.546875 C 24.175781 -36.617188 23.015625 -34.566406 23.015625 -32.390625 Z M 36.75 -32.390625 "/></g></g></g><g fill="#2c4a54" fill-opacity="1"><g transform="translate(254.251719, 353.528016)"><g><path d="M 4.796875 -5.125 C 3.410156 -6 2.71875 -7.378906 2.71875 -9.265625 C 2.71875 -11.160156 4.101562 -14.035156 6.875 -17.890625 C 7.675781 -19.117188 8.96875 -19.734375 10.75 -19.734375 C 12.53125 -19.734375 14.945312 -18.84375 18 -17.0625 C 21.050781 -15.28125 23.8125 -14.390625 26.28125 -14.390625 C 30.71875 -14.390625 32.9375 -15.265625 32.9375 -17.015625 C 32.9375 -18.390625 30.5 -19.40625 25.625 -20.0625 C 21.050781 -20.71875 16.507812 -22.425781 12 -25.1875 C 9.882812 -26.5 8.132812 -28.550781 6.75 -31.34375 C 5.375 -34.144531 4.6875 -37.472656 4.6875 -41.328125 C 4.6875 -52.816406 12.578125 -58.5625 28.359375 -58.5625 C 33.515625 -58.5625 38.820312 -57.328125 44.28125 -54.859375 C 46.820312 -53.691406 48.09375 -52.234375 48.09375 -50.484375 C 48.09375 -48.742188 47.289062 -46.601562 45.6875 -44.0625 C 44.09375 -41.519531 42.460938 -40.25 40.796875 -40.25 C 39.921875 -40.25 38.300781 -40.789062 35.9375 -41.875 C 33.570312 -42.96875 31.007812 -43.515625 28.25 -43.515625 C 23.957031 -43.515625 21.8125 -42.710938 21.8125 -41.109375 C 21.8125 -38.929688 24.285156 -37.515625 29.234375 -36.859375 C 34.023438 -36.347656 38.675781 -34.96875 43.1875 -32.71875 C 45.289062 -31.695312 47.050781 -29.929688 48.46875 -27.421875 C 49.894531 -24.921875 50.609375 -21.78125 50.609375 -18 C 50.609375 -14.21875 49.894531 -11 48.46875 -8.34375 C 47.050781 -5.6875 45.070312 -3.707031 42.53125 -2.40625 C 37.875 -0.144531 32.035156 0.984375 25.015625 0.984375 C 18.003906 0.984375 11.265625 -1.050781 4.796875 -5.125 Z M 4.796875 -5.125 "/></g></g></g><g fill="#2c4a54" fill-opacity="1"><g transform="translate(309.215701, 353.528016)"><g><path d="M 37.734375 -38.171875 L 30.640625 -38.609375 L 30.640625 -23.5625 C 30.640625 -21.59375 30.945312 -20.171875 31.5625 -19.296875 C 32.1875 -18.429688 33.351562 -18 35.0625 -18 C 36.769531 -18 38.078125 -17.941406 38.984375 -17.828125 C 39.898438 -17.722656 40.863281 -17.378906 41.875 -16.796875 C 43.550781 -15.847656 44.390625 -13.410156 44.390625 -9.484375 C 44.390625 -4.910156 43.367188 -2.113281 41.328125 -1.09375 C 40.242188 -0.582031 39.28125 -0.269531 38.4375 -0.15625 C 37.601562 -0.0507812 36.390625 0 34.796875 0 C 27.234375 0 21.488281 -1.707031 17.5625 -5.125 C 13.632812 -8.539062 11.671875 -14.320312 11.671875 -22.46875 L 11.671875 -38.609375 C 10.285156 -38.390625 8.789062 -38.28125 7.1875 -38.28125 C 5.59375 -38.28125 4.269531 -38.894531 3.21875 -40.125 C 2.164062 -41.363281 1.640625 -43.472656 1.640625 -46.453125 C 1.640625 -49.441406 1.816406 -51.609375 2.171875 -52.953125 C 2.535156 -54.296875 3.046875 -55.257812 3.703125 -55.84375 C 4.867188 -56.78125 6.328125 -57.25 8.078125 -57.25 L 11.671875 -56.828125 L 11.671875 -68.0625 C 11.671875 -69.726562 11.722656 -70.960938 11.828125 -71.765625 C 11.941406 -72.566406 12.289062 -73.4375 12.875 -74.375 C 13.8125 -76.195312 16.609375 -77.109375 21.265625 -77.109375 C 26.210938 -77.109375 29.15625 -75.765625 30.09375 -73.078125 C 30.457031 -71.910156 30.640625 -70.054688 30.640625 -67.515625 L 30.640625 -56.828125 C 33.835938 -57.109375 36.253906 -57.25 37.890625 -57.25 C 39.535156 -57.25 40.773438 -57.195312 41.609375 -57.09375 C 42.441406 -56.988281 43.40625 -56.644531 44.5 -56.0625 C 46.382812 -55.113281 47.328125 -52.3125 47.328125 -47.65625 C 47.328125 -43.082031 46.347656 -40.285156 44.390625 -39.265625 C 43.296875 -38.753906 42.332031 -38.441406 41.5 -38.328125 C 40.664062 -38.222656 39.410156 -38.171875 37.734375 -38.171875 Z M 37.734375 -38.171875 "/></g></g></g></svg>